<svg width="64" height="12" viewBox="0 0 64 12" fill="none" xmlns="http://www.w3.org/2000/svg">
<path d="M0.975 11V0.424999H6.105C7.285 0.424999 8.19 0.669999 8.82 1.16C9.46 1.65 9.78 2.315 9.78 3.155C9.78 3.775 9.595 4.305 9.225 4.745C8.865 5.185 8.37 5.485 7.74 5.645V5.405C8.49 5.535 9.065 5.825 9.465 6.275C9.875 6.715 10.08 7.29 10.08 8C10.08 8.93 9.74 9.665 9.06 10.205C8.38 10.735 7.45 11 6.27 11H0.975ZM3.63 8.975H5.91C6.43 8.975 6.815 8.88 7.065 8.69C7.325 8.5 7.455 8.205 7.455 7.805C7.455 7.395 7.325 7.1 7.065 6.92C6.815 6.74 6.43 6.65 5.91 6.65H3.63V8.975ZM3.63 4.625H5.595C6.125 4.625 6.51 4.535 6.75 4.355C7 4.175 7.125 3.9 7.125 3.53C7.125 3.16 7 2.89 6.75 2.72C6.51 2.54 6.125 2.45 5.595 2.45H3.63V4.625ZM11.6576 5.705C11.6576 4.605 11.8726 3.65 12.3026 2.84C12.7326 2.02 13.3476 1.385 14.1476 0.935C14.9476 0.485 15.8926 0.26 16.9826 0.26C18.0826 0.26 19.0326 0.485 19.8326 0.935C20.6326 1.385 21.2476 2.02 21.6776 2.84C22.1176 3.65 22.3376 4.605 22.3376 5.705C22.3376 6.795 22.1176 7.75 21.6776 8.57C21.2476 9.39 20.6326 10.03 19.8326 10.49C19.0326 10.94 18.0826 11.165 16.9826 11.165C15.8926 11.165 14.9476 10.94 14.1476 10.49C13.3576 10.03 12.7426 9.39 12.3026 8.57C11.8726 7.75 11.6576 6.795 11.6576 5.705ZM14.5526 5.705C14.5526 6.695 14.7526 7.47 15.1526 8.03C15.5526 8.58 16.1626 8.855 16.9826 8.855C17.8026 8.855 18.4176 8.58 18.8276 8.03C19.2376 7.47 19.4426 6.695 19.4426 5.705C19.4426 4.715 19.2376 3.945 18.8276 3.395C18.4176 2.845 17.8026 2.57 16.9826 2.57C16.1626 2.57 15.5526 2.845 15.1526 3.395C14.7526 3.935 14.5526 4.705 14.5526 5.705ZM24.4482 11V0.424999H27.2232V8.705H31.7532V11H24.4482ZM37.3693 11.165C36.5193 11.165 35.7093 11.065 34.9393 10.865C34.1793 10.655 33.5393 10.375 33.0193 10.025L33.7993 7.88C34.1293 8.09 34.4893 8.27 34.8793 8.42C35.2693 8.57 35.6743 8.69 36.0943 8.78C36.5243 8.86 36.9593 8.9 37.3993 8.9C38.0593 8.9 38.5143 8.815 38.7643 8.645C39.0243 8.475 39.1543 8.255 39.1543 7.985C39.1543 7.745 39.0693 7.56 38.8993 7.43C38.7293 7.29 38.4093 7.17 37.9393 7.07L36.1093 6.695C35.1393 6.495 34.4143 6.15 33.9343 5.66C33.4543 5.16 33.2143 4.51 33.2143 3.71C33.2143 3.01 33.3993 2.405 33.7693 1.895C34.1493 1.375 34.6793 0.974999 35.3593 0.694999C36.0393 0.405 36.8343 0.26 37.7443 0.26C38.4943 0.26 39.1993 0.365 39.8593 0.574999C40.5193 0.775 41.0593 1.055 41.4793 1.415L40.6993 3.425C40.2993 3.135 39.8493 2.915 39.3493 2.765C38.8493 2.605 38.2943 2.525 37.6843 2.525C37.1043 2.525 36.6643 2.615 36.3643 2.795C36.0743 2.965 35.9293 3.21 35.9293 3.53C35.9293 3.75 36.0143 3.94 36.1843 4.1C36.3643 4.25 36.6893 4.375 37.1593 4.475L38.9593 4.835C39.9293 5.025 40.6543 5.365 41.1343 5.855C41.6243 6.345 41.8693 6.985 41.8693 7.775C41.8693 8.455 41.6793 9.05 41.2993 9.56C40.9293 10.07 40.4093 10.465 39.7393 10.745C39.0693 11.025 38.2793 11.165 37.3693 11.165ZM46.1031 11V2.66H42.8931V0.424999H52.0881V2.66H48.8781V11H46.1031ZM51.212 11L56.162 0.424999H58.412L63.392 11H60.617L59.342 8.09L60.407 8.855H54.197L55.247 8.09L53.987 11H51.212ZM57.272 3.275L55.517 7.46L55.097 6.755H59.492L59.117 7.46L57.347 3.275H57.272Z" fill="black"/>
</svg>
