<svg width="8" height="9" viewBox="0 0 8 9" fill="none" xmlns="http://www.w3.org/2000/svg">
<path fill-rule="evenodd" clip-rule="evenodd" d="M7.84835 0.976323C7.89639 0.923281 7.93451 0.860298 7.96053 0.79097C7.98654 0.721642 7.99996 0.647327 8 0.572268C8.00004 0.497209 7.98671 0.422876 7.96077 0.353513C7.93483 0.28415 7.89678 0.221115 7.8488 0.168007C7.80083 0.1149 7.74386 0.0727601 7.68115 0.0439936C7.61844 0.0152271 7.55123 0.000397455 7.48333 0.000351321C7.41544 0.000305188 7.34821 0.0150435 7.28547 0.0437247C7.22273 0.0724059 7.16571 0.114468 7.11768 0.16751L3.99993 3.6144L0.883092 0.16751C0.786079 0.0602552 0.654501 -1.13012e-09 0.517303 0C0.380106 1.13012e-09 0.248528 0.0602552 0.151515 0.16751C0.0545013 0.274766 1.0222e-09 0.420235 0 0.571917C-1.0222e-09 0.723598 0.0545013 0.869068 0.151515 0.976323L3.26926 4.42222L0.151515 7.86812C0.103478 7.92123 0.0653742 7.98428 0.0393773 8.05366C0.0133804 8.12305 0 8.19742 0 8.27253C0 8.34763 0.0133804 8.422 0.0393773 8.49139C0.0653742 8.56078 0.103478 8.62382 0.151515 8.67693C0.248528 8.78419 0.380106 8.84444 0.517303 8.84444C0.585236 8.84444 0.652505 8.82965 0.715267 8.80091C0.778029 8.77217 0.835056 8.73004 0.883092 8.67693L3.99993 5.23004L7.11768 8.67693C7.21469 8.78406 7.34622 8.84418 7.48333 8.84409C7.62045 8.844 7.75191 8.78369 7.8488 8.67644C7.9457 8.56918 8.00008 8.42376 8 8.27218C7.99992 8.12059 7.94537 7.97524 7.84835 7.86812L4.73061 4.42222L7.84835 0.976323Z" fill="white"/>
</svg>
