<svg width="7" height="7" viewBox="0 0 7 7" fill="none" xmlns="http://www.w3.org/2000/svg">
<path fill-rule="evenodd" clip-rule="evenodd" d="M6.86731 0.772718C6.90934 0.730737 6.94269 0.680889 6.96546 0.626019C6.98823 0.571149 6.99996 0.512332 7 0.452926C7.00004 0.39352 6.98837 0.334688 6.96567 0.27979C6.94297 0.224892 6.90968 0.175003 6.8677 0.132971C6.82572 0.0909383 6.77588 0.0575865 6.72101 0.0348191C6.66614 0.0120516 6.60732 0.000314569 6.54792 0.000278056C6.48851 0.000241543 6.42968 0.0119063 6.37478 0.0346062C6.31989 0.0573062 6.27 0.0905968 6.22797 0.132577L3.49994 2.86065L0.772705 0.132577C0.687819 0.0476895 0.572688 -8.9444e-10 0.45264 0C0.332593 8.94439e-10 0.217462 0.0476895 0.132575 0.132577C0.0476887 0.217465 8.94425e-10 0.332598 0 0.452648C-8.94425e-10 0.572697 0.0476887 0.68783 0.132575 0.772718L2.8606 3.5L0.132575 6.22728C0.0905437 6.26931 0.0572024 6.31921 0.0344551 6.37413C0.0117078 6.42905 0 6.48791 0 6.54735C0 6.60679 0.0117078 6.66565 0.0344551 6.72057C0.0572024 6.77549 0.0905437 6.82539 0.132575 6.86742C0.217462 6.95231 0.332593 7 0.45264 7C0.512082 7 0.570941 6.98829 0.625858 6.96554C0.680775 6.9428 0.730674 6.90945 0.772705 6.86742L3.49994 4.13935L6.22797 6.86742C6.31285 6.9522 6.42794 6.99979 6.54792 6.99972C6.66789 6.99965 6.78292 6.95192 6.8677 6.86703C6.95249 6.78214 7.00007 6.66705 7 6.54707C6.99993 6.4271 6.9522 6.31207 6.86731 6.22728L4.13929 3.5L6.86731 0.772718Z" fill="#0D1E4E"/>
</svg>
