<svg width="84" height="16" viewBox="0 0 84 16" fill="none" xmlns="http://www.w3.org/2000/svg">
<path d="M0.3 15V0.899999H7.14C8.71333 0.899999 9.92 1.22667 10.76 1.88C11.6133 2.53333 12.04 3.42 12.04 4.54C12.04 5.36667 11.7933 6.07333 11.3 6.66C10.82 7.24667 10.16 7.64667 9.32 7.86V7.54C10.32 7.71333 11.0867 8.1 11.62 8.7C12.1667 9.28667 12.44 10.0533 12.44 11C12.44 12.24 11.9867 13.22 11.08 13.94C10.1733 14.6467 8.93333 15 7.36 15H0.3ZM3.84 12.3H6.88C7.57333 12.3 8.08667 12.1733 8.42 11.92C8.76667 11.6667 8.94 11.2733 8.94 10.74C8.94 10.1933 8.76667 9.8 8.42 9.56C8.08667 9.32 7.57333 9.2 6.88 9.2H3.84V12.3ZM3.84 6.5H6.46C7.16667 6.5 7.68 6.38 8 6.14C8.33333 5.9 8.5 5.53333 8.5 5.04C8.5 4.54667 8.33333 4.18667 8 3.96C7.68 3.72 7.16667 3.6 6.46 3.6H3.84V6.5ZM14.5434 7.94C14.5434 6.47333 14.8301 5.2 15.4034 4.12C15.9768 3.02667 16.7968 2.18 17.8634 1.58C18.9301 0.98 20.1901 0.68 21.6434 0.68C23.1101 0.68 24.3768 0.98 25.4434 1.58C26.5101 2.18 27.3301 3.02667 27.9034 4.12C28.4901 5.2 28.7834 6.47333 28.7834 7.94C28.7834 9.39333 28.4901 10.6667 27.9034 11.76C27.3301 12.8533 26.5101 13.7067 25.4434 14.32C24.3768 14.92 23.1101 15.22 21.6434 15.22C20.1901 15.22 18.9301 14.92 17.8634 14.32C16.8101 13.7067 15.9901 12.8533 15.4034 11.76C14.8301 10.6667 14.5434 9.39333 14.5434 7.94ZM18.4034 7.94C18.4034 9.26 18.6701 10.2933 19.2034 11.04C19.7368 11.7733 20.5501 12.14 21.6434 12.14C22.7368 12.14 23.5568 11.7733 24.1034 11.04C24.6501 10.2933 24.9234 9.26 24.9234 7.94C24.9234 6.62 24.6501 5.59333 24.1034 4.86C23.5568 4.12667 22.7368 3.76 21.6434 3.76C20.5501 3.76 19.7368 4.12667 19.2034 4.86C18.6701 5.58 18.4034 6.60667 18.4034 7.94ZM31.5977 15V0.899999H35.2977V11.94H41.3377V15H31.5977ZM48.8258 15.22C47.6924 15.22 46.6124 15.0867 45.5858 14.82C44.5724 14.54 43.7191 14.1667 43.0258 13.7L44.0658 10.84C44.5058 11.12 44.9858 11.36 45.5058 11.56C46.0258 11.76 46.5658 11.92 47.1258 12.04C47.6991 12.1467 48.2791 12.2 48.8658 12.2C49.7458 12.2 50.3524 12.0867 50.6858 11.86C51.0324 11.6333 51.2058 11.34 51.2058 10.98C51.2058 10.66 51.0924 10.4133 50.8658 10.24C50.6391 10.0533 50.2124 9.89333 49.5858 9.76L47.1458 9.26C45.8524 8.99333 44.8858 8.53333 44.2458 7.88C43.6058 7.21333 43.2858 6.34667 43.2858 5.28C43.2858 4.34667 43.5324 3.54 44.0258 2.86C44.5324 2.16667 45.2391 1.63333 46.1458 1.26C47.0524 0.873333 48.1124 0.68 49.3258 0.68C50.3258 0.68 51.2658 0.819999 52.1458 1.1C53.0258 1.36667 53.7458 1.74 54.3058 2.22L53.2658 4.9C52.7324 4.51333 52.1324 4.22 51.4658 4.02C50.7991 3.80667 50.0591 3.7 49.2458 3.7C48.4724 3.7 47.8858 3.82 47.4858 4.06C47.0991 4.28667 46.9058 4.61333 46.9058 5.04C46.9058 5.33333 47.0191 5.58667 47.2458 5.8C47.4858 6 47.9191 6.16667 48.5458 6.3L50.9458 6.78C52.2391 7.03333 53.2058 7.48667 53.8458 8.14C54.4991 8.79333 54.8258 9.64667 54.8258 10.7C54.8258 11.6067 54.5724 12.4 54.0658 13.08C53.5724 13.76 52.8791 14.2867 51.9858 14.66C51.0924 15.0333 50.0391 15.22 48.8258 15.22ZM60.4708 15V3.88H56.1908V0.899999H68.4508V3.88H64.1708V15H60.4708ZM67.2827 15L73.8827 0.899999H76.8827L83.5227 15H79.8227L78.1227 11.12L79.5427 12.14H71.2627L72.6627 11.12L70.9827 15H67.2827ZM75.3627 4.7L73.0227 10.28L72.4627 9.34H78.3227L77.8227 10.28L75.4627 4.7H75.3627Z" fill="white"/>
</svg>
