<svg width="20" height="35" viewBox="0 0 20 35" fill="none" xmlns="http://www.w3.org/2000/svg">
<path fill-rule="evenodd" clip-rule="evenodd" d="M9.27737 0.0209226C7.28111 0.15326 5.33478 1.01555 3.84285 2.42862C0.709028 5.39685 0.164945 10.1389 2.54736 13.7192C3.85279 15.681 5.83783 17.0106 8.21218 17.5134C8.92024 17.6634 10.2477 17.7175 10.977 17.626C12.9604 17.3773 14.7559 16.5175 16.1547 15.1463C19.4694 11.8973 19.7289 6.7231 16.7556 3.16567C14.9275 0.978511 12.1912 -0.172157 9.27737 0.0209226ZM10.8685 5.30676C11.8163 5.53267 12.7888 6.32188 13.2202 7.21513C14.1964 9.23634 13.2357 11.547 11.1095 12.2918C10.5606 12.484 9.74941 12.5259 9.14969 12.3931C7.77188 12.0877 6.65239 10.9618 6.35917 9.58662C6.16795 8.68977 6.35944 7.65549 6.85922 6.88595C7.73553 5.5365 9.28009 4.92813 10.8685 5.30676ZM2.02491 18.0374C1.10797 18.2361 0.326091 18.97 0.0846262 19.8586C-0.0598971 20.3905 -0.0151478 21.1421 0.187074 21.5797C0.564947 22.3976 1.00163 22.745 2.69739 23.5768C3.82712 24.131 4.77853 24.4957 5.74183 24.744L6.34049 24.8983L3.68121 27.559C1.22498 30.0166 1.01007 30.2467 0.866662 30.573C0.280175 31.9073 0.833982 33.3885 2.15565 34.0204C2.82418 34.34 3.76291 34.3076 4.47614 33.9401C4.75062 33.7987 5.26457 33.3176 7.38101 31.2212L9.95241 28.6742L12.5227 31.2253C14.9842 33.6682 15.1116 33.7852 15.5302 33.9891C15.9233 34.1805 16.0205 34.2042 16.4942 34.2249C17.1426 34.2531 17.599 34.1435 18.0551 33.8498C19.2388 33.0877 19.6108 31.514 18.8921 30.3089C18.8265 30.1989 17.6001 28.9367 16.1667 27.5039L13.5606 24.8988L13.9655 24.7962C15.4807 24.4124 17.5986 23.5028 18.6798 22.7714C20.1151 21.8004 20.3249 19.9186 19.1305 18.7288C18.3433 17.9447 17.1378 17.7496 16.177 18.2509C14.725 19.0082 14.1165 19.2912 13.5089 19.4916C12.2951 19.8917 11.2424 20.0592 9.94174 20.0592C7.88617 20.0592 6.0809 19.5753 4.24812 18.533C3.27031 17.9769 2.79389 17.8707 2.02491 18.0374Z" fill="black"/>
</svg>
